<svg width="40" height="40" viewBox="0 0 40 40" fill="none" xmlns="http://www.w3.org/2000/svg">
<rect width="40" height="40" rx="20" fill="#D9D9D9"/>
<path fill-rule="evenodd" clip-rule="evenodd" d="M13.7502 15C13.7502 11.5482 16.5484 8.75 20.0002 8.75C23.452 8.75 26.2502 11.5482 26.2502 15C26.2502 18.4518 23.452 21.25 20.0002 21.25C16.5484 21.25 13.7502 18.4518 13.7502 15Z" fill="#F5F5F5"/>
<path fill-rule="evenodd" clip-rule="evenodd" d="M8.54361 34.5907C8.65103 28.355 13.7391 23.3333 20.0002 23.3333C26.2615 23.3333 31.3496 28.3552 31.4568 34.5912C31.4639 35.0047 31.2257 35.3833 30.8497 35.5558C27.5457 37.0719 23.8704 37.9167 20.0007 37.9167C16.1306 37.9167 12.455 37.0718 9.15066 35.5554C8.77473 35.3829 8.53649 35.0043 8.54361 34.5907Z" fill="#F5F5F5"/>
</svg>
