<svg width="40" height="40" viewBox="0 0 40 40" fill="none" xmlns="http://www.w3.org/2000/svg">
<g clip-path="url(#clip0_26_208)">
<rect width="40" height="40" rx="20" fill="white"/>
<rect width="40" height="40" fill="#E5ECF9"/>
<circle cx="20" cy="20" r="18.8235" stroke="white" stroke-width="2.35294"/>
<path d="M22.9256 26.7605C22.072 26.7346 19.5393 25.9263 19.0358 25.5534L22.9256 26.7605Z" fill="#F1CF73"/>
<path d="M23.2769 30.744C24.8518 32.9499 29.944 33.6047 30.8128 33.92C32.2378 34.46 32.4802 35.92 32.5013 36.7153C32.5622 38.9811 32.828 42.8682 32.0329 44.9223" fill="#F1CF73"/>
<path d="M23.2769 30.744C22.3214 29.0216 22.9256 26.7605 22.9256 26.7605C22.9256 26.7605 24.7768 26.8487 25.5192 26.4687C26.9466 25.8534 28.6421 23.6028 28.6245 20.3805C28.584 17.4786 27.974 14.6133 26.8295 11.9487C25.7967 9.26517 19.3882 6.75694 14.5605 11.444C14.5605 11.444 11.9575 13.8346 13.4692 17.8075" fill="#F1CF73"/>
<path d="M5.96816 44.9223C5.28083 42.7094 5.55131 36.8905 5.65084 36.0694C5.75037 35.2482 6.13443 33.5823 8.16833 33.0753C9.0676 32.8482 14.6987 31.9334 15.8415 30.3464" fill="#F1CF73"/>
<path d="M16.1178 24.3464C16.1178 24.3464 14.2268 23.2675 13.4727 21.0181C12.7186 18.7687 13.4692 17.8075 13.4692 17.8075C14.0746 16.9005 16.4832 16.6781 16.4832 19.4146" fill="#F1CF73"/>
<path d="M16.1178 24.3464C16.2619 27.2052 16.2982 28.5169 15.8415 30.3464L16.1178 24.3464Z" fill="#F1CF73"/>
<path d="M23.2769 30.744C24.8518 32.9499 29.944 33.6047 30.8128 33.92C32.2378 34.46 32.4802 35.92 32.5013 36.7153C32.5622 38.9811 32.828 42.8682 32.0329 44.9223H5.96816C5.28083 42.7094 5.55131 36.8905 5.65084 36.0694C5.75037 35.2482 6.13443 33.5823 8.16833 33.0753C9.0676 32.8482 14.6987 31.9334 15.8415 30.3464C16.2982 28.5169 16.2619 27.2052 16.1178 24.3464C16.1178 24.3464 14.2268 23.2675 13.4727 21.0181C12.7186 18.7687 13.4692 17.8075 13.4692 17.8075C11.9575 13.8346 14.5605 11.444 14.5605 11.444C19.3882 6.75694 25.7967 9.26517 26.8295 11.9487C27.974 14.6133 28.584 17.4786 28.6245 20.3805C28.6421 23.6028 26.9466 25.8534 25.5192 26.4687C24.7768 26.8487 22.9256 26.7605 22.9256 26.7605C22.9256 26.7605 22.3214 29.0216 23.2769 30.744Z" fill="#F1CF73"/>
<path opacity="0.4" d="M22.8986 26.6699C22.7853 27.4706 22.6096 28.647 22.8986 29.5882C21.8272 29.3329 18.8027 27.2322 18.8027 25.5264C20.1261 26.0457 21.4984 26.4288 22.8986 26.6699Z" fill="#050504"/>
<path d="M14.8492 18.4705C14.3926 18.5952 14.0811 19.2881 14.4441 20.0352" stroke="#050504" stroke-width="0.352941" stroke-linecap="round"/>
<path d="M5.54943 35.0694C5.44943 35.8906 5.17767 41.7094 5.86826 43.9223H32.0565C32.8553 41.8682 32.5882 37.9812 32.527 35.7153C32.5059 34.92 32.2623 33.46 30.8306 32.92C30.0312 32.6313 25.9415 32.1176 23.8239 30.4118L19.5298 30.7647L15.2356 29.9412C13.3326 31.1239 8.85782 31.8795 8.07885 32.0753C6.03532 32.5823 5.64943 34.2482 5.54943 35.0694Z" fill="#FAE5E3" stroke="#050504" stroke-width="0.352941" stroke-linecap="round" stroke-linejoin="round"/>
<path d="M18.4247 32.3563L15.1436 30.2869C15.5151 29.5196 15.77 28.7012 15.9 27.8586L19.8424 30.1092L23.0283 28.2033C23.2059 29.1069 23.473 29.8669 23.8436 30.461L21.1141 32.0633L19.8424 30.1092L18.4247 32.3563Z" fill="white" stroke="#050504" stroke-width="0.352941" stroke-linecap="round" stroke-linejoin="round"/>
<path d="M19.8425 30.1094L21.1142 32.0635C21.9636 35.5611 23.1142 40.2082 23.3601 44.1811L21.2424 46.2082L19.2236 44.4623C19.1354 40.7717 19.1389 36.0917 18.4248 32.36L19.8425 30.1094Z" fill="#EB8682" stroke="#050504" stroke-width="0.352941" stroke-linecap="round" stroke-linejoin="round"/>
<path opacity="0.2" d="M19.8425 30.1069L20.9613 31.8246L18.6036 32.8893L18.4248 32.3563L19.8425 30.1069Z" fill="#050504"/>
<path d="M14.447 17.1171C15.5692 16.9849 16.3219 17.4391 16.6242 18.1521C16.9033 18.8168 16.8014 20.037 17.8911 19.3631C18.8801 18.7524 18.0834 16.7836 17.6838 15.813C19.9861 15.3668 20.1807 13.9017 20.1807 13.9017C21.2322 14.2536 23.3422 13.6108 23.4545 12.999C24.5507 13.4073 26.092 13.4094 27.1895 13.0047C27.5647 13.5395 27.4119 13.9017 27.7221 14.4638C29.67 13.8888 30.7713 10.3356 27.6676 8.81184C28.0232 7.15124 25.4905 5.95409 24.3231 7.17884C24.0764 5.27329 20.8489 5.24684 20.403 6.66479C19.3874 5.61369 16.1181 5.93799 15.9085 7.79984C14.4609 7.12479 12.4586 9.00619 12.8118 10.6622C11.1349 10.9186 10.9056 11.6408 11.3237 13.1577C9.79499 14.5871 10.037 16.2512 11.4395 17.2758C10.8187 18.4707 12.3833 20.1413 13.3132 20.6163C12.7342 18.2588 13.3966 17.3333 14.447 17.1171Z" fill="#050504"/>
<path d="M24.793 18.7597C24.7539 18.6705 24.6499 18.6298 24.5606 18.6689C24.4713 18.708 24.4307 18.8121 24.4698 18.9014L24.793 18.7597ZM24.8451 21.7953C24.7561 21.8351 24.7162 21.9395 24.756 22.0285C24.7958 22.1174 24.9002 22.1573 24.9891 22.1175L24.8451 21.7953ZM19.3245 16.1698C19.2617 16.2443 19.2712 16.3557 19.3458 16.4184C19.4203 16.4812 19.5316 16.4717 19.5944 16.3972L19.3245 16.1698ZM22.0226 15.1776L22.0524 15.0036L22.0512 15.0034L22.0226 15.1776ZM22.3464 15.4466C22.4378 15.4805 22.5394 15.4339 22.5733 15.3426C22.6072 15.2512 22.5607 15.1496 22.4693 15.1157L22.3464 15.4466ZM25.0345 15.418C24.9626 15.4838 24.9577 15.5955 25.0235 15.6673C25.0893 15.7392 25.201 15.7442 25.2728 15.6783L25.0345 15.418ZM27.5236 14.9917L27.5979 14.8316L27.5977 14.8315L27.5236 14.9917ZM27.7253 15.3173C27.8031 15.376 27.9138 15.3605 27.9725 15.2827C28.0312 15.2049 28.0157 15.0942 27.9379 15.0355L27.7253 15.3173ZM24.6314 18.8305C24.4698 18.9014 24.4698 18.9014 24.4698 18.9014C24.4698 18.9014 24.4698 18.9014 24.4698 18.9014C24.4698 18.9015 24.4699 18.9016 24.4699 18.9017C24.47 18.902 24.4702 18.9024 24.4705 18.903C24.4709 18.904 24.4716 18.9056 24.4726 18.9078C24.4745 18.9121 24.4772 18.9185 24.4809 18.9268C24.4882 18.9435 24.4988 18.968 24.5125 18.9993C24.5397 19.062 24.5786 19.1519 24.6253 19.2606C24.7188 19.478 24.8433 19.7705 24.9678 20.071C25.0923 20.3718 25.2163 20.6793 25.3088 20.9272C25.3552 21.0513 25.3929 21.1586 25.4188 21.2417C25.4318 21.2833 25.4412 21.3169 25.4472 21.3424C25.454 21.3713 25.4537 21.3791 25.4537 21.3741H25.6302H25.8067C25.8067 21.3361 25.7986 21.2952 25.7908 21.2618C25.7821 21.2249 25.7701 21.1825 25.7558 21.1366C25.727 21.0445 25.6867 20.9304 25.6395 20.8037C25.5447 20.55 25.419 20.2381 25.2938 19.936C25.1686 19.6335 25.0434 19.3395 24.9496 19.1212C24.9027 19.0121 24.8636 18.9217 24.8362 18.8587C24.8225 18.8272 24.8117 18.8025 24.8044 18.7856C24.8007 18.7772 24.7979 18.7708 24.796 18.7664C24.795 18.7642 24.7943 18.7626 24.7938 18.7614C24.7935 18.7609 24.7934 18.7605 24.7932 18.7602C24.7932 18.76 24.7931 18.7599 24.7931 18.7599C24.7931 18.7598 24.7931 18.7598 24.7931 18.7598C24.793 18.7597 24.793 18.7597 24.6314 18.8305ZM25.6302 21.3741H25.4537C25.4537 21.3655 25.4545 21.3909 25.3939 21.4515C25.3404 21.5051 25.2638 21.5616 25.1794 21.6149C25.0963 21.6674 25.0123 21.7127 24.9485 21.7452C24.9168 21.7613 24.8904 21.7741 24.8722 21.7827C24.8631 21.787 24.8561 21.7903 24.8514 21.7924C24.8491 21.7935 24.8474 21.7943 24.8463 21.7948C24.8458 21.795 24.8454 21.7952 24.8452 21.7953C24.8451 21.7953 24.845 21.7953 24.845 21.7954C24.845 21.7954 24.845 21.7954 24.845 21.7954C24.845 21.7954 24.845 21.7953 24.845 21.7953C24.8451 21.7953 24.8451 21.7953 24.9171 21.9564C24.9891 22.1175 24.9892 22.1175 24.9892 22.1175C24.9892 22.1175 24.9892 22.1175 24.9893 22.1175C24.9893 22.1174 24.9894 22.1174 24.9895 22.1174C24.9896 22.1173 24.9898 22.1172 24.99 22.1171C24.9905 22.1169 24.9912 22.1166 24.992 22.1162C24.9936 22.1155 24.9959 22.1145 24.9988 22.1131C25.0046 22.1105 25.0129 22.1066 25.0233 22.1017C25.0441 22.0919 25.0734 22.0776 25.1085 22.0598C25.1784 22.0242 25.2727 21.9734 25.3679 21.9133C25.4618 21.8539 25.5634 21.7813 25.6437 21.7009C25.7168 21.6277 25.8067 21.5144 25.8067 21.3741H25.6302ZM19.4595 16.2835L19.5944 16.3972C20.2367 15.6348 21.1589 15.2149 21.9941 15.3517L22.0226 15.1776L22.0512 15.0034C21.0621 14.8414 20.0242 15.3392 19.3245 16.1698L19.4595 16.2835ZM22.0226 15.1776L21.9929 15.3515C22.1134 15.3722 22.2317 15.404 22.3464 15.4466L22.4079 15.2811L22.4693 15.1157C22.3341 15.0655 22.1945 15.028 22.0524 15.0036L22.0226 15.1776ZM25.1537 15.5482L25.2728 15.6783C25.9515 15.057 26.789 14.8466 27.4496 15.1519L27.5236 14.9917L27.5977 14.8315C26.7665 14.4474 25.7797 14.7358 25.0345 15.418L25.1537 15.5482ZM27.5236 14.9917L27.4494 15.1518C27.5469 15.197 27.6394 15.2525 27.7253 15.3173L27.8316 15.1764L27.9379 15.0355C27.832 14.9557 27.7181 14.8873 27.5979 14.8316L27.5236 14.9917Z" fill="#050504"/>
<path d="M22.6211 23.3074C22.9702 24.1239 24.1783 24.3201 24.7288 24.2275" stroke="#050504" stroke-width="0.352941" stroke-miterlimit="10" stroke-linecap="round"/>
<path d="M21.9744 19.3223C22.3391 19.3223 22.6348 18.9167 22.6348 18.4164C22.6348 17.9161 22.3391 17.5105 21.9744 17.5105C21.6096 17.5105 21.314 17.9161 21.314 18.4164C21.314 18.9167 21.6096 19.3223 21.9744 19.3223Z" fill="#050504"/>
<path d="M22.4087 18.0893C22.2319 17.4164 21.3478 17.3117 20.7085 17.8717" stroke="#050504" stroke-width="0.352941" stroke-linecap="round"/>
<path d="M27.1404 18.9954C27.5051 18.9954 27.8008 18.5898 27.8008 18.0895C27.8008 17.5892 27.5051 17.1836 27.1404 17.1836C26.7757 17.1836 26.48 17.5892 26.48 18.0895C26.48 18.5898 26.7757 18.9954 27.1404 18.9954Z" fill="#050504"/>
<path d="M27.5752 17.7624C27.3984 17.0895 26.5143 16.9848 25.875 17.5448" stroke="#050504" stroke-width="0.352941" stroke-linecap="round"/>
</g>
<rect x="0.176471" y="0.176471" width="39.6471" height="39.6471" rx="19.8235" stroke="#050504" stroke-width="0.352941"/>
<defs>
<clipPath id="clip0_26_208">
<rect width="40" height="40" rx="20" fill="white"/>
</clipPath>
</defs>
</svg>
