<svg width="40" height="40" viewBox="0 0 40 40" fill="none" xmlns="http://www.w3.org/2000/svg">
<g clip-path="url(#clip0_26_272)">
<rect width="40" height="40" rx="20" fill="white"/>
<rect width="40" height="40" fill="#8CB2A5"/>
<circle cx="20" cy="20" r="18.8235" stroke="white" stroke-width="2.35294"/>
<path d="M22.9256 26.7605C22.072 26.7346 19.5393 25.9263 19.0358 25.5534L22.9256 26.7605Z" fill="#F1CF73"/>
<path d="M23.2769 30.744C24.8518 32.9499 29.944 33.6047 30.8128 33.92C32.2378 34.46 32.4802 35.92 32.5013 36.7153C32.5622 38.9811 32.828 42.8682 32.0329 44.9223" fill="#F1CF73"/>
<path d="M23.2769 30.744C22.3214 29.0216 22.9256 26.7605 22.9256 26.7605C22.9256 26.7605 24.7768 26.8487 25.5192 26.4687C26.9466 25.8534 28.6421 23.6028 28.6245 20.3805C28.584 17.4786 27.974 14.6133 26.8295 11.9487C25.7967 9.26517 19.3882 6.75694 14.5605 11.444C14.5605 11.444 11.9575 13.8346 13.4692 17.8075" fill="#F1CF73"/>
<path d="M5.96816 44.9223C5.28083 42.7094 5.55131 36.8905 5.65084 36.0694C5.75037 35.2482 6.13443 33.5823 8.16833 33.0752C9.0676 32.8482 14.6987 31.9334 15.8415 30.3463" fill="#F1CF73"/>
<path d="M16.1178 24.3463C16.1178 24.3463 14.2268 23.2675 13.4727 21.0181C12.7186 18.7687 13.4692 17.8075 13.4692 17.8075C14.0746 16.9005 16.4832 16.6781 16.4832 19.4146" fill="#F1CF73"/>
<path d="M16.1178 24.3463C16.2619 27.2052 16.2982 28.5169 15.8415 30.3463L16.1178 24.3463Z" fill="#F1CF73"/>
<path d="M23.2769 30.744C24.8518 32.9499 29.944 33.6047 30.8128 33.92C32.2378 34.46 32.4802 35.92 32.5013 36.7153C32.5622 38.9811 32.828 42.8682 32.0329 44.9223H5.96816C5.28083 42.7094 5.55131 36.8905 5.65084 36.0694C5.75037 35.2482 6.13443 33.5823 8.16833 33.0752C9.0676 32.8482 14.6987 31.9334 15.8415 30.3463C16.2982 28.5169 16.2619 27.2052 16.1178 24.3463C16.1178 24.3463 14.2268 23.2675 13.4727 21.0181C12.7186 18.7687 13.4692 17.8075 13.4692 17.8075C11.9575 13.8346 14.5605 11.444 14.5605 11.444C19.3882 6.75694 25.7967 9.26517 26.8295 11.9487C27.974 14.6133 28.584 17.4786 28.6245 20.3805C28.6421 23.6028 26.9466 25.8534 25.5192 26.4687C24.7768 26.8487 22.9256 26.7605 22.9256 26.7605C22.9256 26.7605 22.3214 29.0216 23.2769 30.744Z" fill="#F1CF73"/>
<path opacity="0.4" d="M22.8986 26.6699C22.7853 27.4706 22.6096 28.647 22.8986 29.5882C21.8272 29.3329 18.8027 27.2322 18.8027 25.5264C20.1261 26.0457 21.4984 26.4288 22.8986 26.6699Z" fill="#050504"/>
<path d="M14.8492 18.4705C14.3926 18.5952 14.0811 19.2881 14.4441 20.0352" stroke="#050504" stroke-width="0.352941" stroke-linecap="round"/>
<path d="M5.86777 43.981C5.17718 41.7681 5.44895 35.9493 5.54895 35.1281C5.64895 34.3069 6.03483 32.641 8.07836 32.134C8.98189 31.9069 14.6054 31.0575 15.7536 29.4705" fill="#A2BFF8"/>
<path d="M5.86777 43.981C5.17718 41.7681 5.44895 35.9493 5.54895 35.1281C5.64895 34.3069 6.03483 32.641 8.07836 32.134C8.98189 31.9069 14.6054 31.0575 15.7536 29.4705C15.7536 29.4705 17.6947 30.4116 19.4594 30.294L23.2831 29.8234C24.8654 32.0293 29.9571 32.6634 30.8301 32.9787C32.2618 33.5187 32.5054 34.9787 32.5265 35.774C32.5877 38.0399 32.8548 41.9269 32.056 43.981H7.28294H5.86777Z" fill="#A2BFF8"/>
<path d="M5.86777 43.981C5.17718 41.7681 5.44895 35.9493 5.54895 35.1281C5.64895 34.3069 6.03483 32.641 8.07836 32.134C8.98189 31.9069 14.6054 31.0575 15.7536 29.4705C15.7536 29.4705 17.6947 30.4116 19.4594 30.294L23.2831 29.8234C24.8654 32.0293 29.9571 32.6634 30.8301 32.9787C32.2618 33.5187 32.5054 34.9787 32.5265 35.774C32.5877 38.0399 32.8548 41.9269 32.056 43.981H7.28294H5.86777Z" stroke="#050504" stroke-width="0.352941" stroke-linecap="round" stroke-linejoin="round"/>
<path d="M19.5879 31.0588C20.1563 36.0668 20.1792 38.8745 19.5879 43.8824" stroke="#050504" stroke-width="0.352941" stroke-linecap="round"/>
<path d="M22.8124 28.5881C22.8124 29.6058 21.1949 30.1328 19.3478 30.1328C17.5007 30.1328 15.9231 29.6058 15.9231 28.5881C12.8031 30.9058 14.4137 32.4634 16.1101 32.5375C17.8537 32.614 19.6243 30.934 19.6243 30.934C19.6243 30.934 20.8901 32.7164 23.116 32.5399C25.469 32.3528 25.8806 30.3046 22.9289 28.647" fill="#E5ECF9"/>
<path d="M22.8124 28.5881C22.8124 29.6058 21.1949 30.1328 19.3478 30.1328C17.5007 30.1328 15.9231 29.6058 15.9231 28.5881C12.8031 30.9058 14.4137 32.4634 16.1101 32.5375C17.8537 32.614 19.6243 30.934 19.6243 30.934C19.6243 30.934 20.8901 32.7164 23.116 32.5399C25.469 32.3528 25.8806 30.3046 22.9289 28.647" stroke="#050504" stroke-width="0.352941" stroke-linecap="round" stroke-linejoin="round"/>
<path d="M16.3033 17.5085C16.6869 17.8661 17.2401 17.7799 17.5964 17.4395C18.2623 16.8002 18.5071 15.572 17.8354 14.8499C17.7888 14.7963 17.7544 14.7329 17.7348 14.6643C17.7151 14.5958 17.7106 14.5237 17.7216 14.4532C17.7808 13.9576 18.3534 13.3987 18.8463 13.3481C19.6101 13.2676 20.276 13.539 20.9089 13.9311C21.5737 14.3474 22.1997 14.82 22.9396 15.0902C24.8144 15.7802 26.6517 15.6008 28.4035 14.7073C30.185 13.8 30.8418 12.327 30.3899 10.3629C30.0689 8.96802 29.1764 8.01243 27.955 7.35352C27.2151 6.95335 26.4069 6.79006 25.5748 6.73256C24.2885 6.64517 23.0421 6.77166 21.8947 7.42942C21.8558 7.45891 21.8103 7.47832 21.7623 7.48594C21.7143 7.49356 21.6651 7.48915 21.6192 7.47311C20.7404 7.14308 19.8218 7.13618 18.9055 7.16723C17.8173 7.20361 16.7362 7.35781 15.6806 7.6272C14.0583 8.02011 12.564 8.82975 11.3425 9.97765C10.1405 11.1184 9.29357 12.4879 8.70279 14.0415C7.83881 16.3275 7.91735 18.5837 8.83028 20.8261C9.30154 21.984 9.96859 23.0374 10.5662 24.1264C10.7517 24.4644 11.0215 24.7669 11.1058 25.1475C11.2061 25.6605 11.2184 26.1872 11.1422 26.7045C10.9805 27.8832 10.5377 28.9606 9.98794 30.0025C9.31065 31.2846 8.54798 32.5197 7.91508 33.826C7.16038 35.391 6.6322 37.0009 6.69367 38.7534C6.67297 39.3243 6.71419 39.8958 6.81661 40.4576C7.08297 42.0767 8.03915 43.2864 9.15925 44.3731C9.89915 45.0895 10.8166 45.5069 11.8309 45.6921C12.8212 45.8738 13.8115 46.0555 14.8258 45.9221C15.8798 45.7864 16.6926 45.2816 17.1707 44.3064C17.3877 43.8624 17.5796 43.4063 17.7455 42.9403C18.2817 41.4454 18.1041 40.0459 17.0728 38.8063C16.5958 38.2313 16.0961 37.6736 15.7 37.0343C15.3733 36.5088 15.1103 35.9476 15.1638 35.3163C15.1976 34.7 15.4163 34.1088 15.791 33.6213C16.9157 32.2299 17.5349 30.8741 17.6499 29.1078C17.7193 28.0303 17.9037 26.7056 17.412 25.7558C17.1354 25.2211 16.7062 24.7853 16.1052 24.3322C15.5042 23.8791 14.5651 22.9523 14.2384 22.4452C13.5383 21.2711 13.4336 20.887 13.2253 19.4726C13.1297 18.8263 13.3016 17.6408 14.0767 17.2279C14.8394 16.845 15.6647 16.8979 16.3033 17.5085Z" fill="#050504"/>
<path d="M13.1731 21.4119C12.5418 21.9053 12.2949 22.7356 12.2949 23.7649C12.2949 25.3242 13.2648 26.5884 14.4611 26.5884C15.6575 26.5884 16.6273 25.3242 16.6273 23.7649C16.6273 22.4699 15.9585 21.3786 15.0466 21.0457" stroke="white" stroke-width="0.470588" stroke-linecap="round" stroke-linejoin="round"/>
<path d="M24.793 18.7597C24.7539 18.6705 24.6499 18.6298 24.5606 18.6689C24.4713 18.708 24.4307 18.8121 24.4698 18.9014L24.793 18.7597ZM24.8451 21.7953C24.7561 21.8351 24.7162 21.9395 24.756 22.0285C24.7958 22.1174 24.9002 22.1573 24.9891 22.1175L24.8451 21.7953ZM19.3245 16.1698C19.2617 16.2443 19.2712 16.3557 19.3458 16.4184C19.4203 16.4812 19.5316 16.4717 19.5944 16.3972L19.3245 16.1698ZM22.0226 15.1776L22.0524 15.0036L22.0512 15.0034L22.0226 15.1776ZM22.3464 15.4466C22.4378 15.4805 22.5394 15.4339 22.5733 15.3426C22.6072 15.2512 22.5607 15.1496 22.4693 15.1157L22.3464 15.4466ZM25.0345 15.418C24.9626 15.4838 24.9577 15.5955 25.0235 15.6673C25.0893 15.7392 25.201 15.7442 25.2728 15.6783L25.0345 15.418ZM27.5236 14.9917L27.5979 14.8316L27.5977 14.8315L27.5236 14.9917ZM27.7253 15.3173C27.8031 15.376 27.9138 15.3605 27.9725 15.2827C28.0312 15.2049 28.0157 15.0942 27.9379 15.0355L27.7253 15.3173ZM24.6314 18.8305C24.4698 18.9014 24.4698 18.9014 24.4698 18.9014C24.4698 18.9014 24.4698 18.9014 24.4698 18.9014C24.4698 18.9015 24.4699 18.9016 24.4699 18.9017C24.47 18.902 24.4702 18.9024 24.4705 18.903C24.4709 18.904 24.4716 18.9056 24.4726 18.9078C24.4745 18.9121 24.4772 18.9185 24.4809 18.9268C24.4882 18.9435 24.4988 18.968 24.5125 18.9993C24.5397 19.062 24.5786 19.1519 24.6253 19.2606C24.7188 19.478 24.8433 19.7705 24.9678 20.071C25.0923 20.3718 25.2163 20.6793 25.3088 20.9272C25.3552 21.0513 25.3929 21.1586 25.4188 21.2417C25.4318 21.2833 25.4412 21.3169 25.4472 21.3424C25.454 21.3713 25.4537 21.3791 25.4537 21.3741H25.6302H25.8067C25.8067 21.3361 25.7986 21.2952 25.7908 21.2618C25.7821 21.2249 25.7701 21.1825 25.7558 21.1366C25.727 21.0445 25.6867 20.9304 25.6395 20.8037C25.5447 20.55 25.419 20.2381 25.2938 19.936C25.1686 19.6335 25.0434 19.3395 24.9496 19.1212C24.9027 19.0121 24.8636 18.9217 24.8362 18.8587C24.8225 18.8272 24.8117 18.8025 24.8044 18.7856C24.8007 18.7772 24.7979 18.7708 24.796 18.7664C24.795 18.7642 24.7943 18.7626 24.7938 18.7614C24.7935 18.7609 24.7934 18.7605 24.7932 18.7602C24.7932 18.76 24.7931 18.7599 24.7931 18.7599C24.7931 18.7598 24.7931 18.7598 24.7931 18.7598C24.793 18.7597 24.793 18.7597 24.6314 18.8305ZM25.6302 21.3741H25.4537C25.4537 21.3655 25.4545 21.3909 25.3939 21.4515C25.3404 21.5051 25.2638 21.5616 25.1794 21.6149C25.0963 21.6674 25.0123 21.7127 24.9485 21.7452C24.9168 21.7613 24.8904 21.7741 24.8722 21.7827C24.8631 21.787 24.8561 21.7903 24.8514 21.7924C24.8491 21.7935 24.8474 21.7943 24.8463 21.7948C24.8458 21.795 24.8454 21.7952 24.8452 21.7953C24.8451 21.7953 24.845 21.7953 24.845 21.7954C24.845 21.7954 24.845 21.7954 24.845 21.7954C24.845 21.7954 24.845 21.7953 24.845 21.7953C24.8451 21.7953 24.8451 21.7953 24.9171 21.9564C24.9891 22.1175 24.9892 22.1175 24.9892 22.1175C24.9892 22.1175 24.9892 22.1175 24.9893 22.1175C24.9893 22.1174 24.9894 22.1174 24.9895 22.1174C24.9896 22.1173 24.9898 22.1172 24.99 22.1171C24.9905 22.1169 24.9912 22.1166 24.992 22.1162C24.9936 22.1155 24.9959 22.1145 24.9988 22.1131C25.0046 22.1105 25.0129 22.1066 25.0233 22.1017C25.0441 22.0919 25.0734 22.0776 25.1085 22.0598C25.1784 22.0242 25.2727 21.9734 25.3679 21.9133C25.4618 21.8539 25.5634 21.7813 25.6437 21.7009C25.7168 21.6277 25.8067 21.5144 25.8067 21.3741H25.6302ZM19.4595 16.2835L19.5944 16.3972C20.2367 15.6348 21.1589 15.2149 21.9941 15.3517L22.0226 15.1776L22.0512 15.0034C21.0621 14.8414 20.0242 15.3392 19.3245 16.1698L19.4595 16.2835ZM22.0226 15.1776L21.9929 15.3515C22.1134 15.3722 22.2317 15.404 22.3464 15.4466L22.4079 15.2811L22.4693 15.1157C22.3341 15.0655 22.1945 15.028 22.0524 15.0036L22.0226 15.1776ZM25.1537 15.5482L25.2728 15.6783C25.9515 15.057 26.789 14.8466 27.4496 15.1519L27.5236 14.9917L27.5977 14.8315C26.7665 14.4474 25.7797 14.7358 25.0345 15.418L25.1537 15.5482ZM27.5236 14.9917L27.4494 15.1518C27.5469 15.197 27.6394 15.2525 27.7253 15.3173L27.8316 15.1764L27.9379 15.0355C27.832 14.9557 27.7181 14.8873 27.5979 14.8316L27.5236 14.9917Z" fill="#050504"/>
<path d="M22.6211 23.3074C22.9702 24.1239 24.1783 24.3201 24.7288 24.2275" stroke="#050504" stroke-width="0.352941" stroke-miterlimit="10" stroke-linecap="round"/>
<path d="M21.9744 19.3223C22.3391 19.3223 22.6348 18.9167 22.6348 18.4164C22.6348 17.9161 22.3391 17.5105 21.9744 17.5105C21.6096 17.5105 21.314 17.9161 21.314 18.4164C21.314 18.9167 21.6096 19.3223 21.9744 19.3223Z" fill="#050504"/>
<path d="M22.4087 18.0893C22.2319 17.4164 21.3478 17.3117 20.7085 17.8717" stroke="#050504" stroke-width="0.352941" stroke-linecap="round"/>
<path d="M27.1404 18.9954C27.5051 18.9954 27.8008 18.5898 27.8008 18.0895C27.8008 17.5892 27.5051 17.1836 27.1404 17.1836C26.7757 17.1836 26.48 17.5892 26.48 18.0895C26.48 18.5898 26.7757 18.9954 27.1404 18.9954Z" fill="#050504"/>
<path d="M27.5752 17.7624C27.3984 17.0895 26.5143 16.9848 25.875 17.5448" stroke="#050504" stroke-width="0.352941" stroke-linecap="round"/>
</g>
<rect x="0.176471" y="0.176471" width="39.6471" height="39.6471" rx="19.8235" stroke="#050504" stroke-width="0.352941"/>
<defs>
<clipPath id="clip0_26_272">
<rect width="40" height="40" rx="20" fill="white"/>
</clipPath>
</defs>
</svg>
