<svg width="47" height="22" viewBox="0 0 47 22" fill="none" xmlns="http://www.w3.org/2000/svg">
<rect x="0.942871" y="10.3279" width="5.58824" height="6.14706" fill="#D3EE98"/>
<rect x="7.64868" y="7.53394" width="5.58824" height="8.94118" fill="#D9D9D9"/>
<rect x="14.3547" y="4.73975" width="5.58824" height="11.7353" fill="#D9D9D9"/>
<path d="M27.083 7.22742L27.063 8.79742H27.463C27.7363 8.79076 27.9797 8.78742 28.193 8.78742C28.4063 8.78742 28.643 8.79076 28.903 8.79742H28.953C29.033 8.79742 29.1097 8.80076 29.183 8.80742C29.263 8.80742 29.3397 8.80742 29.413 8.80742C29.493 8.81409 29.5697 8.82742 29.643 8.84742C29.7163 8.86075 29.7897 8.87742 29.863 8.89742C29.9763 8.93742 30.0697 8.99742 30.143 9.07742C30.2097 9.16409 30.243 9.26076 30.243 9.36742C30.243 9.40076 30.243 9.44076 30.243 9.48742C30.243 9.52742 30.2363 9.56409 30.223 9.59742C30.2097 9.67076 30.1663 9.73742 30.093 9.79742C30.0597 9.84409 29.9963 9.87742 29.903 9.89742C29.8163 9.92409 29.7297 9.94076 29.643 9.94742C29.5497 9.96742 29.4563 9.97742 29.363 9.97742H28.893L27.043 9.98742L27.023 11.9474L29.013 11.9674H29.483C29.5363 11.9674 29.5863 11.9674 29.633 11.9674C29.6797 11.9674 29.723 11.9708 29.763 11.9774C29.8163 11.9908 29.863 12.0008 29.903 12.0074C29.9497 12.0074 29.993 12.0141 30.033 12.0274C30.113 12.0541 30.1797 12.0908 30.233 12.1374C30.2997 12.2041 30.343 12.2741 30.363 12.3474C30.3697 12.3808 30.373 12.4174 30.373 12.4574C30.3797 12.4908 30.3797 12.5274 30.373 12.5674C30.373 12.6741 30.3397 12.7708 30.273 12.8574C30.193 12.9508 30.0997 13.0108 29.993 13.0374C29.853 13.0974 29.6997 13.1274 29.533 13.1274C29.4597 13.1341 29.383 13.1374 29.303 13.1374C29.223 13.1374 29.1463 13.1408 29.073 13.1474H29.013C28.493 13.1608 27.953 13.1608 27.393 13.1474C27.2597 13.1474 27.153 13.1441 27.073 13.1374C26.993 13.1374 26.9197 13.1374 26.853 13.1374C26.793 13.1374 26.7297 13.1374 26.663 13.1374C26.5963 13.1374 26.5097 13.1374 26.403 13.1374C26.2497 13.1508 26.123 13.1241 26.023 13.0574C25.9497 13.0108 25.893 12.9474 25.853 12.8674C25.833 12.8474 25.823 12.8274 25.823 12.8074C25.8163 12.7941 25.8097 12.7841 25.803 12.7774C25.7963 12.7708 25.7897 12.7608 25.783 12.7474C25.7697 12.7141 25.7597 12.6808 25.753 12.6474C25.7463 12.6074 25.743 12.5708 25.743 12.5374C25.7363 12.5041 25.7297 12.4708 25.723 12.4374C25.723 12.4041 25.7197 12.3708 25.713 12.3374V12.1774C25.713 12.1508 25.713 12.1241 25.713 12.0974C25.7197 12.0708 25.723 12.0441 25.723 12.0174V11.2374L25.743 9.79742V8.46742C25.743 8.22742 25.743 8.01409 25.743 7.82742C25.7497 7.64075 25.7563 7.43742 25.763 7.21742V7.16742C25.7697 7.09409 25.773 7.02742 25.773 6.96742C25.7797 6.90076 25.783 6.83409 25.783 6.76742C25.7897 6.63409 25.8263 6.50409 25.893 6.37742C25.9197 6.32409 25.9463 6.27742 25.973 6.23742C26.0063 6.19742 26.0497 6.16409 26.103 6.13742C26.203 6.07742 26.3063 6.04742 26.413 6.04742C26.4663 6.04742 26.5063 6.05075 26.533 6.05742V6.04742C26.653 6.04742 26.7497 6.04742 26.823 6.04742C26.8963 6.04742 26.9663 6.04742 27.033 6.04742C27.1063 6.04742 27.183 6.04742 27.263 6.04742C27.343 6.04075 27.453 6.03742 27.593 6.03742C27.8597 6.03076 28.113 6.02742 28.353 6.02742C28.593 6.02742 28.8397 6.03076 29.093 6.03742H29.133C29.2063 6.04409 29.283 6.04742 29.363 6.04742C29.443 6.04742 29.5197 6.05075 29.593 6.05742C29.6663 6.05742 29.7397 6.06742 29.813 6.08742C29.8863 6.10075 29.9597 6.12075 30.033 6.14742C30.1463 6.18075 30.2397 6.23742 30.313 6.31742C30.373 6.41075 30.403 6.50409 30.403 6.59742C30.403 6.63742 30.403 6.67742 30.403 6.71742C30.403 6.75075 30.3963 6.78409 30.383 6.81742C30.3763 6.88409 30.3363 6.95409 30.263 7.02742C30.2363 7.04076 30.2063 7.05742 30.173 7.07742C30.1463 7.09742 30.113 7.11409 30.073 7.12742C30.033 7.14075 29.9897 7.15076 29.943 7.15742C29.903 7.15742 29.863 7.16075 29.823 7.16742C29.7697 7.18076 29.7197 7.18742 29.673 7.18742C29.633 7.18742 29.5863 7.18742 29.533 7.18742H29.083L27.083 7.19742V7.22742ZM32.3713 8.89742C32.5713 8.79742 32.7813 8.72742 33.0013 8.68742C33.2213 8.64075 33.4379 8.63075 33.6513 8.65742C33.8713 8.67742 34.0813 8.73409 34.2813 8.82742C34.4813 8.91409 34.6679 9.04076 34.8413 9.20742C35.0146 9.38076 35.1479 9.57076 35.2413 9.77742C35.3346 9.98409 35.4013 10.2141 35.4413 10.4674C35.4679 10.6408 35.5113 10.8008 35.5713 10.9474C35.6313 11.0941 35.6946 11.2408 35.7613 11.3874C35.8346 11.5341 35.9013 11.6808 35.9613 11.8274C36.0279 11.9741 36.0813 12.1274 36.1213 12.2874C36.1546 12.4408 36.1413 12.5908 36.0813 12.7374C36.0279 12.8774 35.9146 12.9641 35.7413 12.9974C35.6413 13.0174 35.5446 13.0108 35.4513 12.9774C35.3646 12.9374 35.2846 12.8841 35.2113 12.8174C35.1379 12.7441 35.0713 12.6674 35.0113 12.5874C34.9579 12.5008 34.9079 12.4208 34.8613 12.3474C34.7079 12.5474 34.5413 12.7041 34.3613 12.8174C34.1813 12.9241 33.9646 12.9941 33.7113 13.0274C33.4979 13.0541 33.2946 13.0608 33.1013 13.0474C32.9079 13.0341 32.7013 12.9974 32.4813 12.9374C32.1946 12.8641 31.9579 12.7374 31.7713 12.5574C31.5913 12.3708 31.4513 12.1574 31.3513 11.9174C31.2579 11.6708 31.2079 11.4074 31.2013 11.1274C31.1946 10.8474 31.2279 10.5708 31.3013 10.2974C31.3946 9.93742 31.5346 9.64409 31.7213 9.41742C31.9079 9.19075 32.1246 9.01742 32.3713 8.89742ZM32.6213 10.0674C32.5279 10.1608 32.4546 10.2708 32.4013 10.3974C32.3479 10.5241 32.3146 10.6574 32.3013 10.7974C32.2946 10.9374 32.3079 11.0774 32.3413 11.2174C32.3746 11.3574 32.4279 11.4808 32.5013 11.5874C32.5679 11.6808 32.6813 11.7608 32.8413 11.8274C33.0013 11.8874 33.1679 11.9241 33.3413 11.9374C33.5413 11.9508 33.7146 11.8974 33.8613 11.7774C34.0146 11.6574 34.1279 11.5074 34.2013 11.3274C34.2813 11.1408 34.3179 10.9441 34.3113 10.7374C34.3046 10.5241 34.2479 10.3308 34.1413 10.1574C34.0613 10.0308 33.9546 9.93742 33.8213 9.87742C33.6946 9.81742 33.5579 9.78742 33.4113 9.78742C33.2646 9.78076 33.1179 9.80409 32.9713 9.85742C32.8313 9.90409 32.7146 9.97409 32.6213 10.0674ZM39.3432 11.3474C39.2166 11.2674 39.0732 11.2041 38.9132 11.1574C38.7599 11.1108 38.5999 11.0674 38.4332 11.0274C38.2732 10.9874 38.1166 10.9441 37.9632 10.8974C37.8099 10.8441 37.6699 10.7708 37.5432 10.6774C37.2699 10.4708 37.1099 10.2174 37.0632 9.91742C37.0232 9.61076 37.0899 9.30409 37.2632 8.99742C37.3566 8.83742 37.4799 8.70742 37.6332 8.60742C37.7866 8.50076 37.9532 8.42075 38.1332 8.36742C38.3199 8.30742 38.5099 8.27409 38.7032 8.26742C38.8966 8.26076 39.0799 8.27075 39.2532 8.29742C39.3666 8.31742 39.4866 8.34742 39.6132 8.38742C39.7399 8.42076 39.8566 8.46742 39.9632 8.52742C40.0766 8.58742 40.1766 8.66409 40.2632 8.75742C40.3566 8.84409 40.4232 8.95409 40.4632 9.08742C40.4899 9.17409 40.4932 9.25742 40.4732 9.33742C40.4599 9.41742 40.4266 9.48409 40.3732 9.53742C40.3266 9.59076 40.2632 9.63076 40.1832 9.65742C40.1099 9.68409 40.0299 9.69075 39.9432 9.67742C39.8432 9.65742 39.7499 9.62742 39.6632 9.58742C39.5766 9.54742 39.4899 9.50409 39.4032 9.45742C39.3166 9.41076 39.2266 9.37076 39.1332 9.33742C39.0466 9.30409 38.9532 9.28742 38.8532 9.28742C38.6999 9.28076 38.5732 9.30742 38.4732 9.36742C38.3732 9.42742 38.3032 9.50076 38.2632 9.58742C38.2299 9.67409 38.2332 9.76742 38.2732 9.86742C38.3199 9.96742 38.4132 10.0541 38.5532 10.1274C38.6799 10.1941 38.8199 10.2474 38.9732 10.2874C39.1266 10.3274 39.2766 10.3674 39.4232 10.4074C39.5766 10.4474 39.7232 10.4941 39.8632 10.5474C40.0099 10.6008 40.1399 10.6741 40.2532 10.7674C40.4732 10.9474 40.6066 11.1574 40.6532 11.3974C40.7066 11.6374 40.6932 11.8741 40.6132 12.1074C40.5332 12.3408 40.3932 12.5474 40.1932 12.7274C39.9999 12.9074 39.7699 13.0274 39.5032 13.0874C39.3099 13.1274 39.0999 13.1474 38.8732 13.1474C38.6532 13.1474 38.4332 13.1241 38.2132 13.0774C37.9999 13.0308 37.7932 12.9574 37.5932 12.8574C37.3999 12.7574 37.2366 12.6308 37.1032 12.4774C37.0099 12.3708 36.9599 12.2508 36.9532 12.1174C36.9532 11.9774 36.9799 11.8574 37.0332 11.7574C37.0932 11.6508 37.1766 11.5774 37.2832 11.5374C37.3899 11.4974 37.5099 11.5208 37.6432 11.6074C37.7499 11.6808 37.8766 11.7541 38.0232 11.8274C38.1699 11.8941 38.3166 11.9474 38.4632 11.9874C38.6099 12.0274 38.7499 12.0474 38.8832 12.0474C39.0232 12.0474 39.1432 12.0174 39.2432 11.9574C39.3899 11.8641 39.4666 11.7574 39.4732 11.6374C39.4799 11.5108 39.4366 11.4141 39.3432 11.3474ZM46.0842 8.64742C46.1442 8.74076 46.1709 8.84076 46.1642 8.94742C46.1642 9.10076 46.1376 9.23409 46.0842 9.34742C46.0709 9.38076 46.0509 9.42409 46.0242 9.47742C46.0042 9.53076 45.9809 9.58742 45.9542 9.64742C45.9342 9.70742 45.9109 9.76409 45.8842 9.81742C45.8576 9.87076 45.8376 9.91076 45.8242 9.93742L45.8042 9.98742C45.7109 10.1941 45.6209 10.3941 45.5342 10.5874C45.4476 10.7808 45.3509 10.9874 45.2442 11.2074C45.1376 11.4208 45.0342 11.6308 44.9342 11.8374C44.8409 12.0374 44.7476 12.2341 44.6542 12.4274C44.6276 12.4808 44.6042 12.5341 44.5842 12.5874C44.5642 12.6341 44.5376 12.6841 44.5042 12.7374L44.0242 13.7674C43.9376 13.9408 43.8542 14.1108 43.7742 14.2774C43.7009 14.4441 43.6176 14.6108 43.5242 14.7774C43.5042 14.8108 43.4842 14.8408 43.4642 14.8674C43.4509 14.9008 43.4376 14.9341 43.4242 14.9674C43.3776 15.0474 43.3076 15.1241 43.2142 15.1974C43.1276 15.2774 43.0342 15.3208 42.9342 15.3274C42.7542 15.3408 42.5976 15.2874 42.4642 15.1674C42.3842 15.1208 42.3209 15.0541 42.2742 14.9674C42.2476 14.9074 42.2342 14.8308 42.2342 14.7374C42.2409 14.6974 42.2442 14.6574 42.2442 14.6174C42.2509 14.5841 42.2576 14.5508 42.2642 14.5174C42.2776 14.4841 42.2876 14.4508 42.2942 14.4174C42.3009 14.3841 42.3109 14.3574 42.3242 14.3374C42.3442 14.2841 42.3609 14.2574 42.3742 14.2574L43.1042 12.6774C43.0709 12.6041 43.0376 12.5308 43.0042 12.4574C42.9709 12.3774 42.9409 12.3074 42.9142 12.2474C42.8276 12.0408 42.7342 11.8241 42.6342 11.5974C42.5409 11.3641 42.4442 11.1341 42.3442 10.9074C42.2442 10.6741 42.1409 10.4474 42.0342 10.2274C41.9276 10.0074 41.8209 9.79742 41.7142 9.59742C41.6742 9.53075 41.6376 9.46075 41.6042 9.38742C41.5709 9.30742 41.5442 9.23076 41.5242 9.15742C41.5042 9.07742 41.4976 8.99742 41.5042 8.91742C41.5109 8.83742 41.5409 8.75742 41.5942 8.67742C41.6476 8.57742 41.7176 8.50742 41.8042 8.46742C41.8909 8.42076 41.9809 8.40076 42.0742 8.40742C42.1742 8.40742 42.2676 8.42742 42.3542 8.46742C42.4409 8.50742 42.5109 8.56075 42.5642 8.62742C42.6776 8.74742 42.7676 8.88076 42.8342 9.02742C42.9009 9.17409 42.9642 9.32409 43.0242 9.47742C43.1509 9.74409 43.2809 10.0241 43.4142 10.3174C43.5476 10.6108 43.6809 10.8974 43.8142 11.1774L44.3342 10.0774C44.3876 9.97076 44.4342 9.86742 44.4742 9.76742C44.5209 9.66742 44.5676 9.57076 44.6142 9.47742C44.6676 9.36409 44.7176 9.24742 44.7642 9.12742C44.8176 9.00742 44.8776 8.89742 44.9442 8.79742C44.9576 8.77075 44.9709 8.74742 44.9842 8.72742C44.9976 8.70742 45.0109 8.68409 45.0242 8.65742C45.0842 8.57742 45.1376 8.51409 45.1842 8.46742C45.2176 8.44075 45.2442 8.42075 45.2642 8.40742C45.2909 8.38742 45.3209 8.37409 45.3542 8.36742C45.4009 8.35409 45.4442 8.34742 45.4842 8.34742C45.5309 8.34075 45.5742 8.34075 45.6142 8.34742C45.6809 8.36742 45.7609 8.39742 45.8542 8.43742C45.9542 8.47742 46.0309 8.54742 46.0842 8.64742Z" fill="#AAAAAA"/>
</svg>
