<svg width="46" height="22" viewBox="0 0 46 22" fill="none" xmlns="http://www.w3.org/2000/svg">
<rect x="0.942871" y="10.4927" width="5.58824" height="6.14706" fill="#E0525E"/>
<rect x="7.64868" y="7.69873" width="5.58824" height="8.94118" fill="#E0525E"/>
<rect x="14.3547" y="4.90454" width="5.58824" height="11.7353" fill="#E0525E"/>
<path d="M30.7469 6.68222C30.7536 6.72888 30.7569 6.77222 30.7569 6.81222C30.7569 6.85222 30.7569 6.89222 30.7569 6.93222V7.34222L30.6969 12.5322V12.6322C30.6969 12.6722 30.6869 12.7322 30.6669 12.8122C30.6602 12.8456 30.6502 12.8822 30.6369 12.9222C30.6236 12.9556 30.6102 12.9922 30.5969 13.0322C30.5636 13.1122 30.5169 13.1722 30.4569 13.2122C30.4036 13.2656 30.3169 13.3022 30.1969 13.3222C30.0102 13.3622 29.8402 13.3456 29.6869 13.2722C29.6002 13.2189 29.5402 13.1522 29.5069 13.0722C29.4936 13.0589 29.4802 13.0389 29.4669 13.0122C29.4669 12.9989 29.4602 12.9789 29.4469 12.9522C29.4336 12.9189 29.4236 12.8856 29.4169 12.8522C29.4102 12.8122 29.4036 12.7722 29.3969 12.7322C29.3969 12.6989 29.3936 12.6656 29.3869 12.6322C29.3869 12.5989 29.3836 12.5656 29.3769 12.5322C29.3636 12.4989 29.3569 12.4722 29.3569 12.4522C29.3569 12.4256 29.3569 12.3956 29.3569 12.3622C29.3702 12.3356 29.3769 12.2856 29.3769 12.2122L29.3869 11.4222L29.3969 10.1622H28.8569L26.8269 10.1722L26.8069 12.5322V12.6322C26.8069 12.6722 26.7969 12.7322 26.7769 12.8122C26.7702 12.8456 26.7602 12.8822 26.7469 12.9222C26.7336 12.9556 26.7202 12.9922 26.7069 13.0322C26.6736 13.1122 26.6269 13.1722 26.5669 13.2122C26.5136 13.2656 26.4269 13.3022 26.3069 13.3222C26.1202 13.3622 25.9502 13.3456 25.7969 13.2722C25.7302 13.2322 25.6669 13.1656 25.6069 13.0722C25.5936 13.0456 25.5869 13.0256 25.5869 13.0122L25.5569 12.9522C25.5436 12.9189 25.5336 12.8856 25.5269 12.8522C25.5202 12.8122 25.5136 12.7722 25.5069 12.7322C25.5069 12.6989 25.5036 12.6656 25.4969 12.6322C25.4902 12.5989 25.4836 12.5656 25.4769 12.5322C25.4702 12.4789 25.4702 12.4222 25.4769 12.3622V12.2122L25.4869 11.4222L25.5069 9.95222C25.5136 9.73888 25.5169 9.51888 25.5169 9.29222C25.5169 9.06555 25.5169 8.83222 25.5169 8.59222C25.5102 8.35222 25.5069 8.13888 25.5069 7.95222C25.5136 7.76555 25.5236 7.55555 25.5369 7.32222V7.28222C25.5436 7.21555 25.5469 7.14888 25.5469 7.08222C25.5469 7.00888 25.5502 6.93555 25.5569 6.86222C25.5636 6.79555 25.5736 6.73222 25.5869 6.67222C25.6069 6.60555 25.6336 6.53888 25.6669 6.47222C25.6869 6.41888 25.7136 6.37555 25.7469 6.34222C25.7802 6.30222 25.8202 6.26555 25.8669 6.23222C25.9736 6.17888 26.0802 6.15222 26.1869 6.15222C26.2402 6.15222 26.2869 6.15555 26.3269 6.16222C26.3669 6.16222 26.4069 6.16555 26.4469 6.17222C26.5269 6.17888 26.6036 6.21888 26.6769 6.29222C26.7302 6.33888 26.7669 6.39222 26.7869 6.45222C26.8202 6.53888 26.8402 6.61555 26.8469 6.68222C26.8536 6.72888 26.8569 6.77222 26.8569 6.81222C26.8569 6.85222 26.8569 6.89222 26.8569 6.93222V7.34222L26.8369 8.99222C26.8902 8.99222 26.9502 8.99222 27.0169 8.99222C27.0902 8.99222 27.1736 8.98888 27.2669 8.98222C27.6136 8.98222 27.9569 8.98555 28.2969 8.99222C28.6436 8.99888 29.0069 9.00222 29.3869 9.00222H29.3969C29.3969 8.70222 29.3969 8.41555 29.3969 8.14222C29.4036 7.86888 29.4136 7.58222 29.4269 7.28222C29.4269 7.21555 29.4269 7.14888 29.4269 7.08222C29.4336 7.00888 29.4402 6.93555 29.4469 6.86222C29.4536 6.79555 29.4636 6.73222 29.4769 6.67222C29.4969 6.60555 29.5236 6.53888 29.5569 6.47222C29.5702 6.41888 29.5936 6.37555 29.6269 6.34222C29.6669 6.30222 29.7136 6.26555 29.7669 6.23222C29.8602 6.17888 29.9636 6.15222 30.0769 6.15222C30.1302 6.15222 30.1769 6.15555 30.2169 6.16222C30.2636 6.16222 30.3036 6.16555 30.3369 6.17222C30.4302 6.18555 30.5069 6.22555 30.5669 6.29222C30.6202 6.32555 30.6569 6.37888 30.6769 6.45222C30.6902 6.49222 30.7002 6.53222 30.7069 6.57222C30.7202 6.60555 30.7336 6.64222 30.7469 6.68222ZM32.7306 9.06222C32.9306 8.96222 33.1406 8.89222 33.3606 8.85222C33.5806 8.80555 33.7973 8.79555 34.0106 8.82222C34.2306 8.84222 34.4406 8.89888 34.6406 8.99222C34.8406 9.07888 35.0273 9.20555 35.2006 9.37222C35.374 9.54555 35.5073 9.73555 35.6006 9.94222C35.694 10.1489 35.7606 10.3789 35.8006 10.6322C35.8273 10.8056 35.8706 10.9656 35.9306 11.1122C35.9906 11.2589 36.054 11.4056 36.1206 11.5522C36.194 11.6989 36.2606 11.8456 36.3206 11.9922C36.3873 12.1389 36.4406 12.2922 36.4806 12.4522C36.514 12.6056 36.5006 12.7556 36.4406 12.9022C36.3873 13.0422 36.274 13.1289 36.1006 13.1622C36.0006 13.1822 35.904 13.1756 35.8106 13.1422C35.724 13.1022 35.644 13.0489 35.5706 12.9822C35.4973 12.9089 35.4306 12.8322 35.3706 12.7522C35.3173 12.6656 35.2673 12.5856 35.2206 12.5122C35.0673 12.7122 34.9006 12.8689 34.7206 12.9822C34.5406 13.0889 34.324 13.1589 34.0706 13.1922C33.8573 13.2189 33.654 13.2256 33.4606 13.2122C33.2673 13.1989 33.0606 13.1622 32.8406 13.1022C32.554 13.0289 32.3173 12.9022 32.1306 12.7222C31.9506 12.5356 31.8106 12.3222 31.7106 12.0822C31.6173 11.8356 31.5673 11.5722 31.5606 11.2922C31.554 11.0122 31.5873 10.7356 31.6606 10.4622C31.754 10.1022 31.894 9.80888 32.0806 9.58222C32.2673 9.35555 32.484 9.18222 32.7306 9.06222ZM32.9806 10.2322C32.8873 10.3255 32.814 10.4355 32.7606 10.5622C32.7073 10.6889 32.674 10.8222 32.6606 10.9622C32.654 11.1022 32.6673 11.2422 32.7006 11.3822C32.734 11.5222 32.7873 11.6456 32.8606 11.7522C32.9273 11.8456 33.0406 11.9256 33.2006 11.9922C33.3606 12.0522 33.5273 12.0889 33.7006 12.1022C33.9006 12.1156 34.074 12.0622 34.2206 11.9422C34.374 11.8222 34.4873 11.6722 34.5606 11.4922C34.6406 11.3056 34.6773 11.1089 34.6706 10.9022C34.664 10.6889 34.6073 10.4955 34.5006 10.3222C34.4206 10.1956 34.314 10.1022 34.1806 10.0422C34.054 9.98222 33.9173 9.95222 33.7706 9.95222C33.624 9.94555 33.4773 9.96888 33.3306 10.0222C33.1906 10.0689 33.074 10.1389 32.9806 10.2322ZM37.3226 9.73222C37.3226 9.65222 37.3226 9.56222 37.3226 9.46222C37.3226 9.35555 37.3259 9.24888 37.3326 9.14222C37.3393 9.02888 37.3493 8.92222 37.3626 8.82222C37.3826 8.71555 37.4093 8.62222 37.4426 8.54222C37.4959 8.42222 37.5793 8.34222 37.6926 8.30222C37.8059 8.25555 37.9293 8.23555 38.0626 8.24222C38.2026 8.24222 38.3126 8.26555 38.3926 8.31222C38.4726 8.35888 38.5326 8.42222 38.5726 8.50222C38.6126 8.57555 38.6359 8.66222 38.6426 8.76222C38.6559 8.85555 38.6626 8.95555 38.6626 9.06222C38.7226 8.95555 38.8026 8.86888 38.9026 8.80222C39.0093 8.73555 39.1159 8.68222 39.2226 8.64222C39.3293 8.60222 39.4259 8.57555 39.5126 8.56222C39.5993 8.54222 39.6493 8.53222 39.6626 8.53222C39.8293 8.51888 39.9793 8.51555 40.1126 8.52222C40.2526 8.52888 40.4059 8.55888 40.5726 8.61222C40.6793 8.65222 40.7893 8.70888 40.9026 8.78222C41.0159 8.84888 41.1159 8.92888 41.2026 9.02222C41.2893 9.11555 41.3459 9.21888 41.3726 9.33222C41.4059 9.43888 41.3926 9.55222 41.3326 9.67222C41.2393 9.83888 41.1359 9.92222 41.0226 9.92222C40.9093 9.91555 40.7859 9.89555 40.6526 9.86222C40.5793 9.84888 40.4926 9.81888 40.3926 9.77222C40.2926 9.72555 40.2059 9.69555 40.1326 9.68222C39.9059 9.64888 39.7059 9.66555 39.5326 9.73222C39.3593 9.79888 39.2093 9.87888 39.0826 9.97222C38.9359 10.0855 38.8093 10.2155 38.7026 10.3622V11.8022C38.7026 11.9822 38.6993 12.1689 38.6926 12.3622C38.6926 12.5556 38.6659 12.7322 38.6126 12.8922C38.5659 13.0456 38.4826 13.1722 38.3626 13.2722C38.2493 13.3656 38.0826 13.4056 37.8626 13.3922C37.7426 13.3856 37.6359 13.3289 37.5426 13.2222C37.4493 13.1089 37.3926 12.9989 37.3726 12.8922C37.3593 12.7922 37.3493 12.6722 37.3426 12.5322C37.3359 12.3922 37.3293 12.2456 37.3226 12.0922C37.3226 11.9389 37.3226 11.7856 37.3226 11.6322C37.3226 11.4722 37.3226 11.3256 37.3226 11.1922V9.73222ZM44.6123 6.28222C44.739 6.24888 44.849 6.24555 44.9423 6.27222C45.0423 6.29222 45.1256 6.33555 45.1923 6.40222C45.2656 6.46888 45.319 6.55222 45.3523 6.65222C45.3923 6.75222 45.4123 6.86222 45.4123 6.98222C45.419 7.31555 45.419 7.57555 45.4123 7.76222C45.4123 7.94888 45.4123 8.11222 45.4123 8.25222V11.3222C45.4123 11.6822 45.4123 11.9822 45.4123 12.2222C45.4123 12.4622 45.399 12.6589 45.3723 12.8122C45.3523 12.9589 45.3123 13.0689 45.2523 13.1422C45.199 13.2156 45.1156 13.2656 45.0023 13.2922C44.889 13.3256 44.739 13.3422 44.5523 13.3422C44.3723 13.3422 44.1456 13.3422 43.8723 13.3422C43.1523 13.3422 42.5823 13.1722 42.1623 12.8322C41.749 12.4922 41.529 11.9522 41.5023 11.2122C41.489 10.8922 41.529 10.5989 41.6223 10.3322C41.7156 10.0655 41.8523 9.83888 42.0323 9.65222C42.219 9.45888 42.4456 9.31222 42.7123 9.21222C42.9856 9.10555 43.2956 9.05555 43.6423 9.06222H44.1923V7.27222C44.1923 7.16555 44.1923 7.06222 44.1923 6.96222C44.1923 6.85555 44.2023 6.75888 44.2223 6.67222C44.2423 6.57888 44.2823 6.49888 44.3423 6.43222C44.4023 6.36555 44.4923 6.31555 44.6123 6.28222ZM42.8723 11.8322C43.0123 12.0256 43.2656 12.1322 43.6323 12.1522C43.7056 12.1589 43.7756 12.1622 43.8423 12.1622C43.909 12.1556 43.969 12.1456 44.0223 12.1322C44.0823 12.1256 44.139 12.1156 44.1923 12.1022V10.2522C43.959 10.2122 43.7456 10.1889 43.5523 10.1822C43.3656 10.1689 43.179 10.2355 42.9923 10.3822C42.8923 10.4622 42.8156 10.5656 42.7623 10.6922C42.709 10.8122 42.679 10.9422 42.6723 11.0822C42.6656 11.2155 42.679 11.3489 42.7123 11.4822C42.7456 11.6156 42.799 11.7322 42.8723 11.8322Z" fill="#AAAAAA"/>
</svg>
