<svg width="56" height="22" viewBox="0 0 56 22" fill="none" xmlns="http://www.w3.org/2000/svg">
<rect x="0.942871" y="10.9104" width="5.58824" height="6.14706" fill="#FF834E"/>
<rect x="7.64868" y="8.11646" width="5.58824" height="8.94118" fill="#FF834E"/>
<rect x="14.3547" y="5.32227" width="5.58824" height="11.7353" fill="#D9D9D9"/>
<path d="M31.8206 12.9699C31.8139 13.0499 31.8039 13.1333 31.7906 13.2199C31.7772 13.3066 31.7539 13.3866 31.7206 13.4599C31.6872 13.5399 31.6439 13.5999 31.5906 13.6399C31.5172 13.7066 31.4306 13.7433 31.3306 13.7499C31.2372 13.7833 31.1472 13.7933 31.0606 13.7799C30.9739 13.7666 30.8939 13.7433 30.8206 13.7099C30.7272 13.6499 30.6572 13.5799 30.6106 13.4999C30.5706 13.4133 30.5406 13.3233 30.5206 13.2299C30.5006 13.1366 30.4906 13.0399 30.4906 12.9399C30.4906 12.8399 30.4906 12.7466 30.4906 12.6599V11.8799L30.4806 10.3499C30.4806 10.2433 30.4806 10.1599 30.4806 10.0999C30.4806 10.0399 30.4806 9.98661 30.4806 9.93994C30.4806 9.88661 30.4772 9.82994 30.4706 9.76994C30.4706 9.70327 30.4706 9.60994 30.4706 9.48994C30.4706 9.46994 30.4706 9.43661 30.4706 9.38994C30.4772 9.33661 30.4739 9.19994 30.4606 8.97994C30.2006 9.41327 29.9839 9.76327 29.8106 10.0299C29.6439 10.2899 29.5006 10.4933 29.3806 10.6399C29.2672 10.7799 29.1672 10.8766 29.0806 10.9299C28.9939 10.9766 28.9039 11.0033 28.8106 11.0099C28.7572 11.0166 28.7039 11.0066 28.6506 10.9799C28.5972 10.9533 28.5439 10.9199 28.4906 10.8799C28.4439 10.8399 28.3972 10.7999 28.3506 10.7599C28.3106 10.7133 28.2772 10.6699 28.2506 10.6299C28.0906 10.4299 27.9106 10.1899 27.7106 9.90994C27.5106 9.62994 27.3039 9.28994 27.0906 8.88994C27.0906 8.89661 27.0872 9.00661 27.0806 9.21994C27.0806 9.43327 27.0806 9.69994 27.0806 10.0199C27.0806 10.3333 27.0772 10.6733 27.0706 11.0399C27.0706 11.3999 27.0672 11.7366 27.0606 12.0499C27.0606 12.3633 27.0572 12.6266 27.0506 12.8399C27.0439 13.0466 27.0372 13.1499 27.0306 13.1499C27.0306 13.2633 27.0039 13.3699 26.9506 13.4699C26.8972 13.5633 26.8239 13.6399 26.7306 13.6999C26.6439 13.7599 26.5406 13.7933 26.4206 13.7999C26.3006 13.8066 26.1706 13.7733 26.0306 13.6999C25.9439 13.6466 25.8772 13.5699 25.8306 13.4699C25.7906 13.3699 25.7639 13.2766 25.7506 13.1899C25.7439 13.0966 25.7372 13.0066 25.7306 12.9199C25.7306 12.8333 25.7306 12.7433 25.7306 12.6499L25.7406 11.8699L25.7506 10.3299V8.98994C25.7506 8.40994 25.7706 7.83994 25.8106 7.27994C25.8106 7.20661 25.8172 7.13994 25.8306 7.07994C25.8506 7.01327 25.8739 6.94994 25.9006 6.88994C25.9539 6.78327 26.0239 6.70327 26.1106 6.64994C26.2106 6.58994 26.3172 6.55994 26.4306 6.55994C26.4772 6.55994 26.5206 6.56327 26.5606 6.56994C26.6072 6.56994 26.6506 6.57327 26.6906 6.57994C26.8239 6.60661 26.9372 6.68661 27.0306 6.81994C27.1306 6.94661 27.2239 7.05661 27.3106 7.14994C27.3639 7.20994 27.4206 7.28327 27.4806 7.36994C27.5406 7.45661 27.6006 7.54661 27.6606 7.63994C27.7206 7.73327 27.7772 7.82327 27.8306 7.90994C27.8839 7.99661 27.9306 8.07327 27.9706 8.13994C28.1439 8.41994 28.2972 8.67661 28.4306 8.90994C28.5706 9.14327 28.7006 9.34327 28.8206 9.50994C28.8406 9.48994 28.8639 9.46327 28.8906 9.42994C28.9172 9.38994 28.9439 9.34994 28.9706 9.30994C29.0039 9.26327 29.0306 9.21994 29.0506 9.17994C29.0772 9.13994 29.0972 9.10661 29.1106 9.07994C29.1772 8.97327 29.2439 8.86994 29.3106 8.76994C29.3772 8.66327 29.4472 8.55327 29.5206 8.43994C29.6006 8.31994 29.6806 8.18994 29.7606 8.04994C29.8472 7.90994 29.9472 7.74994 30.0606 7.56994C30.1072 7.48994 30.1672 7.39327 30.2406 7.27994C30.3139 7.16661 30.3972 7.05661 30.4906 6.94994C30.5839 6.84327 30.6806 6.75327 30.7806 6.67994C30.8872 6.59994 30.9939 6.55994 31.1006 6.55994C31.1539 6.55994 31.2006 6.56327 31.2406 6.56994C31.2806 6.56994 31.3206 6.57327 31.3606 6.57994C31.4406 6.58661 31.5172 6.62327 31.5906 6.68994C31.6439 6.74327 31.6839 6.79994 31.7106 6.85994C31.7372 6.94661 31.7539 7.01994 31.7606 7.07994C31.7672 7.12661 31.7706 7.16994 31.7706 7.20994C31.7772 7.24994 31.7806 7.28994 31.7806 7.32994C31.7806 7.70327 31.7839 8.07327 31.7906 8.43994C31.7972 8.80661 31.8006 9.17661 31.8006 9.54994C31.8006 10.0033 31.8006 10.4699 31.8006 10.9499C31.8072 11.4299 31.8106 11.8966 31.8106 12.3499C31.8106 12.4433 31.8139 12.5433 31.8206 12.6499C31.8272 12.7566 31.8272 12.8633 31.8206 12.9699ZM36.0949 12.3199C36.1749 12.2999 36.2549 12.2866 36.3349 12.2799C36.4215 12.2733 36.4982 12.2833 36.5649 12.3099C36.6382 12.3366 36.6982 12.3833 36.7449 12.4499C36.7915 12.5099 36.8149 12.5966 36.8149 12.7099C36.8149 12.7899 36.7949 12.8666 36.7549 12.9399C36.7149 13.0133 36.6649 13.0799 36.6049 13.1399C36.5449 13.1999 36.4782 13.2533 36.4049 13.2999C36.3315 13.3399 36.2615 13.3733 36.1949 13.3999C36.0015 13.4866 35.7782 13.5533 35.5249 13.5999C35.2782 13.6466 35.0215 13.6633 34.7549 13.6499C34.3949 13.6366 34.0482 13.5666 33.7149 13.4399C33.3882 13.3066 33.1315 13.0899 32.9449 12.7899C32.7715 12.4966 32.6682 12.1699 32.6349 11.8099C32.6015 11.4499 32.6182 11.1099 32.6849 10.7899C32.7582 10.4033 32.8815 10.0899 33.0549 9.84994C33.2349 9.60327 33.4482 9.40661 33.6949 9.25994C33.9949 9.08661 34.3315 8.99661 34.7049 8.98994C35.0782 8.98327 35.4349 9.05661 35.7749 9.20994C36.0015 9.30994 36.2049 9.44661 36.3849 9.61994C36.5649 9.78661 36.7015 9.98994 36.7949 10.2299C36.8215 10.2899 36.8415 10.3633 36.8549 10.4499C36.8749 10.5366 36.8882 10.6299 36.8949 10.7299C36.9015 10.8233 36.9015 10.9166 36.8949 11.0099C36.8882 11.1033 36.8715 11.1866 36.8449 11.2599C36.8049 11.3799 36.7549 11.4733 36.6949 11.5399C36.6349 11.6066 36.5582 11.6566 36.4649 11.6899C36.3715 11.7233 36.2582 11.7466 36.1249 11.7599C35.9982 11.7666 35.8449 11.7733 35.6649 11.7799C35.5049 11.7866 35.3549 11.7899 35.2149 11.7899C35.0749 11.7899 34.9315 11.7899 34.7849 11.7899C34.6382 11.7833 34.4849 11.7799 34.3249 11.7799C34.1715 11.7733 33.9982 11.7666 33.8049 11.7599C33.7849 11.8933 33.8015 12.0099 33.8549 12.1099C33.9149 12.2033 33.9949 12.2833 34.0949 12.3499C34.1949 12.4099 34.3082 12.4566 34.4349 12.4899C34.5615 12.5233 34.6849 12.5433 34.8049 12.5499C35.0315 12.5633 35.2482 12.5466 35.4549 12.4999C35.6615 12.4466 35.8749 12.3866 36.0949 12.3199ZM35.6649 10.3799C35.5382 10.2333 35.4049 10.1266 35.2649 10.0599C35.1582 10.0133 35.0449 9.99327 34.9249 9.99994C34.8115 9.99994 34.7015 10.0166 34.5949 10.0499C34.4015 10.0966 34.2382 10.1966 34.1049 10.3499C34.0915 10.3633 34.0682 10.3966 34.0349 10.4499C34.0015 10.4966 33.9682 10.5466 33.9349 10.5999C33.9082 10.6533 33.8882 10.7033 33.8749 10.7499C33.8615 10.7966 33.8682 10.8199 33.8949 10.8199H35.8549C35.8482 10.7266 35.8315 10.6499 35.8049 10.5899C35.7782 10.5233 35.7315 10.4533 35.6649 10.3799ZM40.8232 6.69994C40.9499 6.66661 41.0599 6.66327 41.1532 6.68994C41.2532 6.70994 41.3366 6.75327 41.4032 6.81994C41.4766 6.88661 41.5299 6.96994 41.5632 7.06994C41.6032 7.16994 41.6232 7.27994 41.6232 7.39994C41.6299 7.73327 41.6299 7.99327 41.6232 8.17994C41.6232 8.36661 41.6232 8.52994 41.6232 8.66994V11.7399C41.6232 12.0999 41.6232 12.3999 41.6232 12.6399C41.6232 12.8799 41.6099 13.0766 41.5832 13.2299C41.5632 13.3766 41.5232 13.4866 41.4632 13.5599C41.4099 13.6333 41.3266 13.6833 41.2132 13.7099C41.0999 13.7433 40.9499 13.7599 40.7632 13.7599C40.5832 13.7599 40.3566 13.7599 40.0832 13.7599C39.3632 13.7599 38.7932 13.5899 38.3732 13.2499C37.9599 12.9099 37.7399 12.3699 37.7132 11.6299C37.6999 11.3099 37.7399 11.0166 37.8332 10.7499C37.9266 10.4833 38.0632 10.2566 38.2432 10.0699C38.4299 9.87661 38.6566 9.72994 38.9232 9.62994C39.1966 9.52327 39.5066 9.47327 39.8532 9.47994H40.4032V7.68994C40.4032 7.58327 40.4032 7.47994 40.4032 7.37994C40.4032 7.27327 40.4132 7.17661 40.4332 7.08994C40.4532 6.99661 40.4932 6.91661 40.5532 6.84994C40.6132 6.78327 40.7032 6.73327 40.8232 6.69994ZM39.0832 12.2499C39.2232 12.4433 39.4766 12.5499 39.8432 12.5699C39.9166 12.5766 39.9866 12.5799 40.0532 12.5799C40.1199 12.5733 40.1799 12.5633 40.2332 12.5499C40.2932 12.5433 40.3499 12.5333 40.4032 12.5199V10.6699C40.1699 10.6299 39.9566 10.6066 39.7632 10.5999C39.5766 10.5866 39.3899 10.6533 39.2032 10.7999C39.1032 10.8799 39.0266 10.9833 38.9732 11.1099C38.9199 11.2299 38.8899 11.3599 38.8832 11.4999C38.8766 11.6333 38.8899 11.7666 38.9232 11.8999C38.9566 12.0333 39.0099 12.1499 39.0832 12.2499ZM43.6898 9.89994C43.6898 10.0866 43.6898 10.2966 43.6898 10.5299C43.6965 10.7633 43.6998 11.0066 43.6998 11.2599C43.6998 11.5066 43.6998 11.7533 43.6998 11.9999C43.6998 12.2399 43.6965 12.4633 43.6898 12.6699C43.6831 12.7699 43.6731 12.8799 43.6598 12.9999C43.6465 13.1133 43.6198 13.2199 43.5798 13.3199C43.5398 13.4199 43.4765 13.5033 43.3898 13.5699C43.3098 13.6299 43.1998 13.6566 43.0598 13.6499C42.8531 13.6366 42.7031 13.5466 42.6098 13.3799C42.5231 13.2133 42.4731 12.9799 42.4598 12.6799C42.4598 12.5266 42.4565 12.3499 42.4498 12.1499C42.4498 11.9499 42.4465 11.7466 42.4398 11.5399C42.4398 11.3333 42.4398 11.1333 42.4398 10.9399C42.4398 10.7399 42.4398 10.5599 42.4398 10.3999C42.4398 10.3066 42.4365 10.1933 42.4298 10.0599C42.4298 9.92661 42.4331 9.78994 42.4398 9.64994C42.4465 9.50994 42.4631 9.37661 42.4898 9.24994C42.5165 9.11661 42.5598 9.00661 42.6198 8.91994C42.6665 8.86661 42.7331 8.82661 42.8198 8.79994C42.9065 8.76661 42.9965 8.74994 43.0898 8.74994C43.1898 8.74994 43.2831 8.76661 43.3698 8.79994C43.4631 8.83327 43.5298 8.87994 43.5698 8.93994C43.5965 8.97994 43.6165 9.03661 43.6298 9.10994C43.6431 9.18327 43.6531 9.26661 43.6598 9.35994C43.6731 9.44661 43.6798 9.53994 43.6798 9.63994C43.6865 9.73327 43.6898 9.81994 43.6898 9.89994ZM43.3098 7.87994C43.1031 7.93327 42.9298 7.91327 42.7898 7.81994C42.6565 7.71994 42.5731 7.57327 42.5398 7.37994C42.5131 7.23994 42.5231 7.11661 42.5698 7.00994C42.6165 6.90327 42.6865 6.82327 42.7798 6.76994C42.8731 6.70994 42.9798 6.68327 43.0998 6.68994C43.2198 6.69661 43.3398 6.74327 43.4598 6.82994C43.5731 6.90994 43.6531 7.00327 43.6998 7.10994C43.7531 7.21661 43.7698 7.31994 43.7498 7.41994C43.7365 7.51994 43.6931 7.61327 43.6198 7.69994C43.5465 7.77994 43.4431 7.83994 43.3098 7.87994ZM48.6785 11.3099C48.6651 11.5299 48.6518 11.7533 48.6385 11.9799C48.6251 12.1999 48.5885 12.4133 48.5285 12.6199C48.4751 12.8266 48.3885 13.0133 48.2685 13.1799C48.1551 13.3466 47.9918 13.4799 47.7785 13.5799C47.5918 13.6733 47.3918 13.7366 47.1785 13.7699C46.9651 13.8099 46.7518 13.8266 46.5385 13.8199C46.3251 13.8133 46.1185 13.7799 45.9185 13.7199C45.7185 13.6666 45.5385 13.5899 45.3785 13.4899C45.2185 13.3899 45.0885 13.2599 44.9885 13.0999C44.8885 12.9399 44.8085 12.7666 44.7485 12.5799C44.6951 12.3933 44.6585 12.1999 44.6385 11.9999C44.6185 11.7999 44.6051 11.6133 44.5985 11.4399C44.5718 10.9799 44.5718 10.5266 44.5985 10.0799C44.5985 9.99327 44.5985 9.89661 44.5985 9.78994C44.5985 9.67661 44.6051 9.56661 44.6185 9.45994C44.6385 9.35327 44.6685 9.25661 44.7085 9.16994C44.7485 9.07661 44.8151 9.00661 44.9085 8.95994C45.1085 8.85327 45.2918 8.84661 45.4585 8.93994C45.6318 9.03327 45.7351 9.22661 45.7685 9.51994C45.7885 9.67327 45.7951 9.84327 45.7885 10.0299C45.7885 10.2166 45.7951 10.3866 45.8085 10.5399C45.8151 10.7666 45.8218 11.0133 45.8285 11.2799C45.8351 11.5399 45.8718 11.7733 45.9385 11.9799C46.0118 12.1866 46.1285 12.3433 46.2885 12.4499C46.4551 12.5499 46.7018 12.5533 47.0285 12.4599C47.1818 12.4133 47.2818 12.2966 47.3285 12.1099C47.3818 11.9233 47.4085 11.6466 47.4085 11.2799C47.4085 11.1199 47.4051 10.9433 47.3985 10.7499C47.3918 10.5566 47.3885 10.3666 47.3885 10.1799C47.3885 9.98661 47.3918 9.80994 47.3985 9.64994C47.4118 9.48327 47.4318 9.35661 47.4585 9.26994C47.4918 9.14994 47.5618 9.05994 47.6685 8.99994C47.7751 8.93994 47.8885 8.90994 48.0085 8.90994C48.1285 8.90327 48.2418 8.92661 48.3485 8.97994C48.4551 9.03327 48.5285 9.11994 48.5685 9.23994C48.6085 9.34661 48.6351 9.48327 48.6485 9.64994C48.6685 9.80994 48.6818 9.98661 48.6885 10.1799C48.6951 10.3666 48.6951 10.5599 48.6885 10.7599C48.6885 10.9533 48.6851 11.1366 48.6785 11.3099ZM55.1349 11.3599C55.1483 11.5733 55.1549 11.7766 55.1549 11.9699C55.1549 12.1566 55.1483 12.3566 55.1349 12.5699C55.1349 12.6499 55.1349 12.7399 55.1349 12.8399C55.1349 12.9399 55.1283 13.0366 55.1149 13.1299C55.1016 13.2233 55.0783 13.3099 55.0449 13.3899C55.0116 13.4699 54.9616 13.5333 54.8949 13.5799C54.8149 13.6333 54.7249 13.6699 54.6249 13.6899C54.5249 13.7033 54.4316 13.6966 54.3449 13.6699C54.2583 13.6433 54.1816 13.5933 54.1149 13.5199C54.0549 13.4466 54.0216 13.3433 54.0149 13.2099C53.9949 12.9033 53.9849 12.5966 53.9849 12.2899C53.9849 12.1366 53.9816 11.9899 53.9749 11.8499C53.9749 11.7099 53.9783 11.5133 53.9849 11.2599C53.9849 11.1333 53.9749 10.9899 53.9549 10.8299C53.9349 10.6633 53.8849 10.5466 53.8049 10.4799C53.7449 10.4266 53.6783 10.3966 53.6049 10.3899C53.5316 10.3766 53.4583 10.3833 53.3849 10.4099C53.3183 10.4366 53.2583 10.4866 53.2049 10.5599C53.1516 10.6266 53.1149 10.7133 53.0949 10.8199C53.0949 10.9066 53.0916 10.9966 53.0849 11.0899C53.0849 11.1766 53.0883 11.2599 53.0949 11.3399C53.1016 11.5533 53.1049 11.7566 53.1049 11.9499C53.1049 12.1366 53.1016 12.3366 53.0949 12.5499C53.0883 12.6366 53.0849 12.7299 53.0849 12.8299C53.0916 12.9299 53.0916 13.0299 53.0849 13.1299C53.0783 13.2233 53.0583 13.3099 53.0249 13.3899C52.9983 13.4699 52.9483 13.5333 52.8749 13.5799C52.7949 13.6333 52.7083 13.6666 52.6149 13.6799C52.5283 13.6866 52.4449 13.6733 52.3649 13.6399C52.2916 13.5999 52.2249 13.5399 52.1649 13.4599C52.1116 13.3799 52.0816 13.2733 52.0749 13.1399C52.0616 12.9866 52.0516 12.8466 52.0449 12.7199C52.0449 12.5866 52.0449 12.4466 52.0449 12.2999C52.0449 12.1466 52.0483 11.9899 52.0549 11.8299C52.0616 11.6633 52.0583 11.5033 52.0449 11.3499C52.0449 11.3033 52.0416 11.2499 52.0349 11.1899C52.0349 11.1233 52.0316 11.0566 52.0249 10.9899C52.0249 10.9233 52.0183 10.8599 52.0049 10.7999C51.9983 10.7333 51.9849 10.6799 51.9649 10.6399C51.9116 10.5466 51.8149 10.4866 51.6749 10.4599C51.5416 10.4333 51.4283 10.4433 51.3349 10.4899C51.2416 10.5366 51.1716 10.5966 51.1249 10.6699C51.0783 10.7433 51.0449 10.8233 51.0249 10.9099C51.0049 10.9966 50.9949 11.0899 50.9949 11.1899C50.9949 11.2833 50.9949 11.3733 50.9949 11.4599C50.9949 11.8933 50.9949 12.2699 50.9949 12.5899C51.0016 12.9033 50.9683 13.1566 50.8949 13.3499C50.8616 13.4499 50.7916 13.5266 50.6849 13.5799C50.5849 13.6333 50.4749 13.6599 50.3549 13.6599C50.2416 13.6599 50.1349 13.6333 50.0349 13.5799C49.9349 13.5266 49.8683 13.4433 49.8349 13.3299C49.8149 13.2566 49.7949 13.1533 49.7749 13.0199C49.7616 12.8799 49.7516 12.7266 49.7449 12.5599C49.7383 12.3933 49.7349 12.2266 49.7349 12.0599C49.7349 11.8866 49.7349 11.7299 49.7349 11.5899V10.1499C49.7283 9.99661 49.7249 9.82994 49.7249 9.64994C49.7249 9.46994 49.7516 9.30661 49.8049 9.15994C49.8516 9.03327 49.9249 8.95327 50.0249 8.91994C50.1249 8.87994 50.2283 8.86327 50.3349 8.86994C50.4549 8.86994 50.5483 8.90327 50.6149 8.96994C50.6883 9.02994 50.7416 9.10661 50.7749 9.19994C50.8083 9.28661 50.8283 9.38661 50.8349 9.49994C50.8416 9.60661 50.8483 9.70994 50.8549 9.80994C50.9283 9.64327 51.0149 9.50661 51.1149 9.39994C51.2216 9.28661 51.3716 9.21327 51.5649 9.17994C52.0583 9.08661 52.4516 9.21327 52.7449 9.55994C52.8783 9.42661 53.0483 9.31661 53.2549 9.22994C53.4149 9.16994 53.5783 9.14327 53.7449 9.14994C53.9116 9.14994 54.0683 9.17994 54.2149 9.23994C54.3683 9.29994 54.5049 9.38661 54.6249 9.49994C54.7516 9.61327 54.8516 9.74994 54.9249 9.90994C55.0249 10.1233 55.0816 10.3599 55.0949 10.6199C55.1083 10.8799 55.1216 11.1266 55.1349 11.3599Z" fill="#AAAAAA"/>
</svg>
